<svg width="1920" height="1000" viewBox="0 0 1920 1000" fill="none" xmlns="http://www.w3.org/2000/svg">
<g clip-path="url(#clip0_84_3083)">
<g opacity="0.5" filter="url(#filter0_f_84_3083)">
<circle cx="-0.5" cy="-0.5" r="206.5" fill="#F04451" fill-opacity="0.5"/>
</g>
<g opacity="0.5" filter="url(#filter1_f_84_3083)">
<circle cx="1432.5" cy="513.5" r="206.5" fill="#F04451"/>
</g>
<path d="M204.024 874.76L204.026 874.76C217.951 881.505 231.441 889.123 244.415 897.569C244.565 897.671 244.701 897.768 244.842 897.867C244.949 897.943 245.059 898.021 245.178 898.104L245.179 898.104C246.426 898.967 247.639 899.829 248.794 900.689C237.103 902.978 225.919 907.299 215.748 913.46C198.816 923.206 183.59 935.628 170.654 950.25C167.936 930.868 172.485 911.215 183.445 895.092L183.92 894.393L183.327 894.337L179.363 886.209L169.602 866.197L169.891 866.002L171.464 864.935L174.983 862.549C181.804 864.863 188.503 867.531 195.051 870.542L195.054 870.544C198.049 871.898 201.052 873.307 204.024 874.76Z" stroke="white"/>
<path d="M1764.33 255.213C1773.2 255.68 1782.1 255.584 1790.96 254.927C1792.85 254.793 1794.75 254.629 1796.63 254.439C1800.8 254.045 1804.95 253.431 1809.06 252.6C1809.67 251.344 1810.86 248.876 1810.86 248.876L1800.08 241.578L1795.65 238.581L1795.63 238.588C1796.49 227.108 1792.96 215.723 1785.76 206.711C1785.74 206.825 1785.72 206.948 1785.7 207.065C1783.47 218.15 1779.45 228.798 1773.79 238.592C1770.42 244.758 1765.95 250.263 1760.6 254.841C1761.62 254.973 1762.69 255.077 1763.79 255.166C1763.97 255.181 1764.14 255.199 1764.33 255.213Z" fill="#343849"/>
<path d="M809.43 861.54C807.689 853.401 805.431 845.381 802.669 837.527C802.084 835.846 801.471 834.169 800.84 832.517C799.463 828.84 797.891 825.237 796.132 821.725C794.839 821.481 792.298 821 792.298 821L788.279 832.517L786.628 837.247L786.639 837.26C775.969 839.271 766.455 845.22 760 853.917C760.109 853.907 760.227 853.898 760.338 853.888C770.983 853.215 781.668 854.269 791.973 857.008C798.417 858.569 804.524 861.276 810 865C809.871 864.045 809.705 863.051 809.518 862.037C809.488 861.87 809.462 861.708 809.43 861.54Z" fill="#343849"/>
<path d="M219.518 187.559C207.05 186.922 194.552 187.081 182.099 188.035C179.436 188.23 176.769 188.467 174.13 188.74C168.267 189.309 162.437 190.188 156.665 191.375C155.808 193.153 154.125 196.648 154.125 196.648L169.251 206.94L175.464 211.167L175.487 211.156C174.256 227.396 179.181 243.49 189.275 256.216C189.302 256.054 189.336 255.88 189.365 255.715C192.524 240.031 198.201 224.96 206.172 211.092C210.936 202.362 217.23 194.564 224.753 188.075C223.319 187.891 221.814 187.746 220.273 187.623C220.019 187.603 219.774 187.577 219.518 187.559Z" fill="#343849"/>
</g>
<defs>
<filter id="filter0_f_84_3083" x="-707" y="-707" width="1413" height="1413" filterUnits="userSpaceOnUse" color-interpolation-filters="sRGB">
<feFlood flood-opacity="0" result="BackgroundImageFix"/>
<feBlend mode="normal" in="SourceGraphic" in2="BackgroundImageFix" result="shape"/>
<feGaussianBlur stdDeviation="250" result="effect1_foregroundBlur_84_3083"/>
</filter>
<filter id="filter1_f_84_3083" x="726" y="-193" width="1413" height="1413" filterUnits="userSpaceOnUse" color-interpolation-filters="sRGB">
<feFlood flood-opacity="0" result="BackgroundImageFix"/>
<feBlend mode="normal" in="SourceGraphic" in2="BackgroundImageFix" result="shape"/>
<feGaussianBlur stdDeviation="250" result="effect1_foregroundBlur_84_3083"/>
</filter>
<clipPath id="clip0_84_3083">
<rect width="1920" height="1000" fill="white"/>
</clipPath>
</defs>
</svg>
